<svg width="64" height="64" viewBox="0 0 64 64" fill="none" xmlns="http://www.w3.org/2000/svg">
    <path d="M32 4C16.536 4 4 16.536 4 32s12.536 28 28 28 28-12.536 28-28S47.464 4 32 4zm0 50.4c-12.375 0-22.4-10.025-22.4-22.4S19.625 9.6 32 9.6 54.4 19.625 54.4 32 44.375 54.4 32 54.4z" fill="#52683E"/>
    <path d="M32 20c-3.309 0-6 2.691-6 6s2.691 6 6 6 6-2.691 6-6-2.691-6-6-6zm0 8.8c-1.545 0-2.8-1.255-2.8-2.8s1.255-2.8 2.8-2.8 2.8 1.255 2.8 2.8-1.255 2.8-2.8 2.8z" fill="#52683E"/>
    <path d="M41.6 38.4H22.4c-1.545 0-2.8 1.255-2.8 2.8v4c0 1.545 1.255 2.8 2.8 2.8h19.2c1.545 0 2.8-1.255 2.8-2.8v-4c0-1.545-1.255-2.8-2.8-2.8z" fill="#52683E"/>
</svg> 